<?xml version="1.0" encoding="UTF-8"?>
<svg width="495" height="100" viewBox="0 0 495 100" fill="none" xmlns="http://www.w3.org/2000/svg">
<path d="M78.6735 56.1313L78.8953 56.1206C78.3703 57.379 74.6909 58.1774 73.998 59.6225C73.7802 60.0767 73.8524 60.6009 74.0448 61.0511C74.2869 61.621 74.758 61.9925 75.3523 62.2026C77.5786 62.9922 80.4471 61.977 82.476 61.1221L82.475 63.3939C77.2561 64.5492 71.9843 65.193 66.9129 66.9357C65.2279 67.5143 63.4167 68.2486 61.8782 69.1394C61.173 69.5478 60.5513 70.1498 59.8126 70.4931C58.2385 71.2244 56.3581 71.5434 54.6486 71.8652C52.7011 72.2319 46.3693 73.6614 44.7389 72.5256C43.7627 71.8448 44.4281 70.6487 44.2534 69.7238C44.1821 69.3455 43.9688 69.047 43.6351 68.834C42.4652 68.0881 40.1223 68.268 38.7801 68.3575C35.3281 68.586 31.8796 69.2775 28.4808 69.8785C23.8561 70.7109 19.2243 71.5064 14.5857 72.2649C11.5272 72.7483 8.45612 73.1538 5.37535 73.4825C2.29386 68.2048 0.764102 62.2279 0.154297 56.2548L52.3836 56.2179L68.7892 56.212C72.0728 56.2111 75.395 56.3015 78.6735 56.1313Z" fill="#3384BF"/>
<path d="M46.9013 0.111225C54.205 -0.369477 61.5292 0.712029 68.3406 3.27698C79.044 7.36358 87.9809 14.7985 93.6913 24.3669C94.8045 26.2391 95.6796 28.2055 96.577 30.1768C93.5834 27.9852 90.2256 27.1421 86.4923 27.2909C86.4068 26.8913 86.3071 26.4949 86.1911 26.1024C85.2743 22.9541 83.1985 20.2749 80.1958 18.6738C76.4452 16.6734 72.4371 16.7428 68.4138 17.8418C68.1635 17.1861 67.8928 16.5247 67.5723 15.8978C65.7743 12.374 62.6322 9.94837 58.7971 8.67781C55.7049 7.7871 52.4997 7.77621 49.4125 8.70912C45.0198 10.0367 42.1127 13.1271 40.0502 16.9328C38.9076 16.3828 37.7695 15.8994 36.5377 15.5603C33.126 14.6211 29.4103 14.8615 26.2826 16.5252C23.0735 18.2322 20.9849 21.0312 19.9841 24.3687C19.082 23.9719 18.1516 23.6368 17.1998 23.3658C13.548 22.3625 9.92072 22.805 6.60449 24.5483C8.53271 21.5551 10.243 18.9463 12.6678 16.268C21.5495 6.4578 33.4204 1.03538 46.9013 0.111225Z" fill="#3384BF"/>
<path d="M49.4104 16.6772C49.6394 16.7148 49.9355 16.7407 50.1308 16.8663C50.2794 16.9615 50.374 17.1241 50.4341 17.2801C51.2532 19.4072 51.8027 21.7128 52.5037 23.8845C53.5518 27.1268 54.7983 30.4038 55.595 33.7061C53.4714 34.2839 50.8574 34.3232 48.9169 35.3373C48.3227 35.6474 47.8495 36.1017 47.424 36.5967C46.2616 37.9485 45.2768 39.5384 44.255 40.9928C41.8416 44.4287 39.5053 47.9538 36.9567 51.2982C35.6409 53.0254 34.4455 53.8637 32.1967 54.1924C30.1519 54.4909 28.0207 54.4102 25.9565 54.4122L17.5158 54.4102L6.33769 54.4141C4.36084 54.419 2.34603 54.4987 0.372837 54.4141C0.235877 54.4083 0.16353 54.3781 0.05384 54.3023C-0.0812879 51.4888 0.053532 48.6861 0.28502 45.882C1.7175 46.2113 3.13838 46.5854 4.54522 47.0038C5.81896 47.3805 7.44589 48.0774 8.7874 48.1046C9.15167 48.1114 9.32475 48.0394 9.58432 47.7992C10.6679 46.7963 11.9661 44.7711 12.9283 43.5339L20.2369 34.1978C21.1433 33.0194 22.2452 31.2281 23.397 30.2874C23.6023 30.1196 23.7576 30.052 24.027 30.0667C24.8941 30.1138 25.8676 30.5686 26.6822 30.851C28.3678 31.4354 34.7361 33.8282 36.1103 33.8753C36.4763 33.8878 36.703 33.7953 36.9596 33.5476C38.0264 32.5175 39.3501 30.3668 40.2605 29.1151C42.3386 26.258 44.4753 23.4427 46.5211 20.5636C47.3625 19.3793 48.2942 17.7121 49.3392 16.7414C49.3626 16.7196 49.387 16.6986 49.4104 16.6772Z" fill="#2E5A36"/>
<path d="M52.7246 16.7832C52.7917 16.7885 52.8579 16.795 52.924 16.8027C54.0331 16.9407 63.0006 19.5428 63.6498 19.9838C64.4862 20.5519 66.2201 23.3641 66.8764 24.3068L75.4287 36.7351C76.8512 38.8071 78.1994 41.0928 79.8193 43.0195L79.9201 43.1392C79.0745 43.7885 78.1292 44.3701 77.3427 45.0831C76.8594 45.5215 76.3699 46.1235 76.3699 46.7926C76.3699 47.1901 76.607 47.5572 76.8929 47.8282C77.7578 48.6461 78.8619 48.6996 79.9984 48.7045C79.1732 49.7878 78.1832 50.6037 77.0018 51.3185C76.3323 51.7241 75.5803 52.1023 75.0309 52.6567C74.4956 53.1945 74.4824 53.6282 74.5007 54.3469C70.8539 54.5307 67.1562 54.4101 63.5033 54.4033L47.5871 54.4062C45.2304 54.4062 42.161 54.6094 39.931 54.4013C39.4765 54.3585 38.9797 54.2243 38.627 53.9316C38.4462 53.7809 38.278 53.6379 38.2926 53.3928C38.3174 52.9815 38.7737 52.3027 39.004 51.939C40.1102 50.1895 48.9923 37.3342 49.8684 36.8078C51.5117 35.819 56.3215 35.9776 57.2973 34.7851C57.5517 34.4743 57.4713 33.9331 57.4103 33.5756C57.1773 32.2097 56.5779 30.7915 56.1465 29.4693L53.6617 21.8309C53.1713 20.3324 52.5791 18.8079 52.227 17.2754C52.3298 16.9949 52.4753 16.9512 52.7246 16.7832Z" fill="#619745"/>
<path d="M36.4964 70.8025C37.0194 70.7442 37.6011 70.75 38.1214 70.8249C40.2615 71.1312 39.7359 72.8798 40.7467 74.1207C42.3136 76.0443 47.9796 75.135 50.3077 74.8004C53.2138 74.3842 58.217 73.2211 60.9674 73.5197C62.4805 73.684 64.023 74.6769 65.4262 75.2303C66.7999 75.7612 68.2041 76.2154 69.6317 76.5908C76.4226 78.3267 83.5779 79.2399 90.547 80.0947C89.7238 81.1411 88.8172 82.5852 87.706 83.3545C86.8126 83.973 85.1785 84.2122 84.0918 84.4913C75.9994 86.5676 67.9995 86.553 59.7667 85.3559C55.2061 84.5458 50.6812 83.405 46.0858 82.806C35.13 81.3764 25.586 84.079 15.0056 86.2875C11.7777 83.1454 8.85471 79.6668 6.70752 75.7564C8.62841 75.6134 10.6074 75.2205 12.512 74.9269C17.8311 74.074 23.1338 73.1307 28.4177 72.0979C31.0812 71.6029 33.794 71.0369 36.4964 70.8025Z" fill="#075893"/>
<path d="M35.9419 84.7115C42.5348 84.2223 48.9984 85.8221 55.4088 87.0163C63.4687 88.5178 71.3586 88.8621 79.4836 87.6319C81.1228 87.3839 82.8384 87.1826 84.4298 86.7255C79.275 91.9177 72.1157 95.5023 65.1049 97.7934C60.8414 99.0645 56.4203 99.79 51.9574 99.9514C39.4503 100.513 26.5043 96.1947 17.2173 88.1279C23.4675 86.7061 29.493 85.1258 35.9419 84.7115Z" fill="#243B5C"/>
<path d="M83.3083 41.0888C82.5726 41.3439 81.2183 41.849 80.4786 41.4889C80.2639 41.3846 80.1784 41.2152 80.1764 40.9907C80.1713 40.3555 81.5022 39.2043 81.9326 38.7363C82.65 37.9558 83.2086 36.8823 83.6258 35.9233C83.8771 35.344 84.509 32.844 84.8366 32.5593C84.9872 32.4275 85.1439 32.4023 85.3352 32.3628C85.5825 32.4247 85.7046 32.427 85.8613 32.6383C86.3324 33.2761 86.5756 34.7925 86.8707 35.5816C87.121 36.2508 87.4507 36.9034 87.7834 37.5377C88.4692 38.8431 89.8307 39.7466 90.5501 41.0018C90.4483 41.2303 90.373 41.3801 90.1227 41.4848C89.3046 41.8261 87.9981 41.3159 87.2156 41.0198C87.6125 41.9225 88.0561 42.6556 88.7297 43.398C89.5641 44.317 90.5318 45.0812 91.5208 45.8408C91.6958 45.9752 92.3786 46.4167 92.4335 46.5714C92.461 46.6492 92.4132 46.7346 92.403 46.8162C92.1659 47.1002 91.8942 47.28 91.5076 47.3285C90.2641 47.4842 88.7368 46.9986 87.586 46.5972C88.2271 48.0973 88.9587 49.2643 90.1532 50.4284C90.9968 51.2463 91.9278 51.9766 92.9311 52.6087C93.4592 52.9452 94.1023 53.2525 94.5785 53.6473C94.7525 53.7913 94.7484 53.8321 94.7779 54.0402C94.6232 54.3213 94.4004 54.4341 94.0941 54.5342C92.5811 55.0322 89.3911 53.8311 87.9676 53.3352C88.9546 55.6312 90.6996 57.512 92.9107 58.82C93.5192 59.1798 95.2409 59.8353 95.191 60.5734C94.958 60.8389 94.6161 60.8613 94.2742 60.8914C91.5544 61.1248 88.9047 59.7701 86.6112 58.537C86.5848 60.5783 86.5257 62.6293 86.6031 64.6695L88.0063 64.4984C90.5084 64.2912 93.0145 64.1347 95.5238 64.0297C96.5209 63.9839 97.6311 63.84 98.6201 63.948C97.2027 68.9164 95.0893 74.0628 91.9186 78.2669C86.9216 77.9392 67.0014 75.5041 64.1706 72.2803C63.9244 72.0002 63.7504 71.655 63.7911 71.2815C63.8501 70.7437 64.3019 70.3265 64.7323 70.0221C68.4534 67.3809 79.3664 65.5137 83.9799 64.9885C83.9697 62.8559 83.9799 60.7232 84.0094 58.5905C82.2267 59.527 78.238 61.4477 76.1927 60.8545C75.9383 60.7806 75.804 60.6765 75.6321 60.4791C75.6005 60.34 75.5323 60.2515 75.6321 60.129C75.9801 59.7011 76.8857 59.4463 77.3832 59.175C79.6279 57.9477 81.7159 55.6195 82.6642 53.3264C81.202 53.8282 77.7251 55.1625 76.3057 54.4701C76.0737 54.3572 75.9974 54.2503 75.8946 54.0295C75.9139 53.9595 75.9099 53.8788 75.9546 53.8195C76.0513 53.6901 76.4807 53.4694 76.6374 53.3741C77.8594 52.6311 79.0082 51.9474 80.0492 50.9652C81.3994 49.6922 82.3793 48.3191 83.0061 46.6076C81.7647 46.8973 79.4702 47.5327 78.2878 46.9357C78.2207 46.8302 78.1515 46.7825 78.182 46.6526C78.2665 46.3038 80.7329 44.6897 81.2519 44.179C82.1768 43.2696 82.8626 42.2861 83.3083 41.0888Z" fill="#2E5A36"/>
<path d="M91.5555 56.0479C94.371 56.1918 97.1804 56.1879 100 56.1976C99.9135 58.7417 99.3213 61.4938 98.6202 63.9474C97.6312 63.8395 96.521 63.9834 95.5238 64.0291C93.0146 64.1341 90.5085 64.2907 88.0063 64.4978L88.0786 61.0095C89.9742 61.8488 92.047 62.6307 94.1797 62.5315C94.9652 62.4955 95.7538 62.2854 96.287 61.7009C96.6747 61.275 96.928 60.5661 96.869 60.002C96.7327 58.6891 94.257 57.8227 93.2029 57.2168C92.6137 56.8784 92.0846 56.466 91.5555 56.0479Z" fill="#3083C1"/>
<path d="M156.804 47L148.4 33.228L139.996 47H133.572L143.868 30.412L135.024 15.98H141.624L148.4 27.376L155.176 15.98H161.776L152.976 30.412L163.228 47H156.804ZM165.795 47V24.208H171.119V41.764L179.479 24.208H187.311V47H181.943V29.488L173.627 47H165.795ZM191.791 47V24.208H197.115V41.764L205.475 24.208H213.307V47H207.939V29.488L199.623 47H191.791ZM202.527 21.964C200.21 21.964 198.538 21.4213 197.511 20.336C196.514 19.2213 196.015 17.696 196.015 15.76H200.063C200.063 16.816 200.268 17.6227 200.679 18.18C201.09 18.708 201.706 18.972 202.527 18.972C203.378 18.972 204.008 18.708 204.419 18.18C204.83 17.6227 205.035 16.816 205.035 15.76H209.083C209.083 17.696 208.57 19.2213 207.543 20.336C206.546 21.4213 204.874 21.964 202.527 21.964ZM217.919 43.744C218.682 42.8053 219.312 41.7933 219.811 40.708C220.339 39.6227 220.735 38.4053 220.999 37.056C221.263 35.6773 221.424 34.108 221.483 32.348L221.747 24.208H239.567V43.744H234.155V28.96H223.903L226.675 25.704L226.411 32.876C226.352 34.7533 226.206 36.3373 225.971 37.628C225.736 38.9187 225.414 40.048 225.003 41.016C224.622 41.9547 224.123 42.864 223.507 43.744H217.919ZM221.307 52.28H216.115V42.204H222.055V47H221.307V52.28ZM219.503 47V42.292H238.863V47H219.503ZM237.807 52.28V47H237.015V42.204H242.999V52.28H237.807ZM255.888 47.528C253.541 47.528 251.517 47.0293 249.816 46.032C248.115 45.0347 246.795 43.6267 245.856 41.808C244.947 39.9893 244.492 37.8627 244.492 35.428C244.492 33.1107 244.976 31.072 245.944 29.312C246.912 27.552 248.232 26.1733 249.904 25.176C251.605 24.1787 253.527 23.68 255.668 23.68C257.78 23.68 259.628 24.12 261.212 25C262.796 25.88 264.028 27.1267 264.908 28.74C265.788 30.3533 266.228 32.2747 266.228 34.504C266.228 34.9147 266.213 35.3547 266.184 35.824C266.184 36.264 266.155 36.6307 266.096 36.924H247.22V33.228H262.664L260.948 33.932C260.948 32.612 260.728 31.4973 260.288 30.588C259.877 29.6787 259.261 29.004 258.44 28.564C257.619 28.0947 256.636 27.86 255.492 27.86C254.436 27.86 253.468 28.0947 252.588 28.564C251.737 29.004 251.077 29.708 250.608 30.676C250.139 31.644 249.904 32.8613 249.904 34.328V36.264C249.904 38.4053 250.403 40.092 251.4 41.324C252.427 42.5267 253.967 43.128 256.02 43.128C257.311 43.128 258.411 42.8493 259.32 42.292C260.229 41.7347 260.963 40.8693 261.52 39.696L265.788 41.764C265.201 42.996 264.424 44.052 263.456 44.932C262.488 45.7827 261.359 46.428 260.068 46.868C258.807 47.308 257.413 47.528 255.888 47.528ZM284.568 47V24.208H290.024V47H284.568ZM269.564 47V24.208H275.02V47H269.564ZM272.908 37.672V32.876H286.636V37.672H272.908ZM422.014 47.22C421.369 47.22 420.797 46.9853 420.298 46.516C419.799 46.0173 419.55 45.416 419.55 44.712C419.55 44.0373 419.799 43.4653 420.298 42.996C420.797 42.4973 421.369 42.248 422.014 42.248C422.718 42.248 423.305 42.4973 423.774 42.996C424.273 43.4653 424.522 44.0373 424.522 44.712C424.522 45.416 424.273 46.0173 423.774 46.516C423.305 46.9853 422.718 47.22 422.014 47.22ZM430.449 55.8V24.692H433.089V28.872C433.675 27.6693 434.394 26.7307 435.245 26.056C436.125 25.352 437.063 24.868 438.061 24.604C439.087 24.3107 440.07 24.164 441.009 24.164C442.886 24.164 444.573 24.6187 446.069 25.528C447.565 26.408 448.753 27.728 449.633 29.488C450.513 31.2187 450.953 33.3453 450.953 35.868C450.953 38.3907 450.513 40.5173 449.633 42.248C448.753 43.9787 447.565 45.2987 446.069 46.208C444.573 47.088 442.886 47.528 441.009 47.528C440.129 47.528 439.205 47.396 438.237 47.132C437.298 46.868 436.389 46.4133 435.509 45.768C434.658 45.0933 433.925 44.184 433.309 43.04V55.8H430.449ZM440.525 44.888C441.874 44.888 443.106 44.58 444.221 43.964C445.335 43.3187 446.23 42.336 446.905 41.016C447.609 39.6667 447.961 37.9507 447.961 35.868C447.961 33.7853 447.609 32.084 446.905 30.764C446.23 29.4147 445.335 28.4173 444.221 27.772C443.106 27.1267 441.874 26.804 440.525 26.804C439.205 26.804 437.973 27.1267 436.829 27.772C435.714 28.4173 434.805 29.4147 434.101 30.764C433.426 32.084 433.089 33.7853 433.089 35.868C433.089 37.9507 433.426 39.6667 434.101 41.016C434.805 42.336 435.714 43.3187 436.829 43.964C437.973 44.58 439.205 44.888 440.525 44.888ZM466.718 47.528C464.254 47.528 462.098 47.0733 460.25 46.164C458.402 45.2253 456.965 43.8907 455.938 42.16C454.941 40.4 454.442 38.3027 454.442 35.868C454.442 33.4333 454.941 31.3507 455.938 29.62C456.965 27.86 458.402 26.5107 460.25 25.572C462.098 24.6333 464.254 24.164 466.718 24.164H470.282C472.776 24.164 474.932 24.6333 476.75 25.572C478.598 26.5107 480.021 27.86 481.018 29.62C482.045 31.3507 482.558 33.4333 482.558 35.868C482.558 38.3027 482.045 40.4 481.018 42.16C480.021 43.8907 478.598 45.2253 476.75 46.164C474.932 47.0733 472.776 47.528 470.282 47.528H466.718ZM466.718 45.064H470.282C472.16 45.064 473.788 44.7413 475.166 44.096C476.574 43.4213 477.66 42.4093 478.422 41.06C479.185 39.7107 479.566 37.98 479.566 35.868C479.566 33.756 479.185 32.0253 478.422 30.676C477.66 29.2973 476.574 28.2853 475.166 27.64C473.788 26.9653 472.16 26.628 470.282 26.628H466.718C464.841 26.628 463.198 26.9653 461.79 27.64C460.412 28.2853 459.341 29.2973 458.578 30.676C457.816 32.0253 457.434 33.756 457.434 35.868C457.434 37.98 457.816 39.7107 458.578 41.06C459.341 42.4093 460.412 43.4213 461.79 44.096C463.198 44.7413 464.841 45.064 466.718 45.064ZM467.07 55.8V46.516V46.032V25.616V25V15.98H469.93V25.044V25.748V46.076V46.648V55.8H467.07Z" fill="#3384BF"/>
<path d="M294.529 47V24.208H306.101C308.272 24.208 310.017 24.736 311.337 25.792C312.657 26.848 313.317 28.2707 313.317 30.06C313.317 31.1453 313.053 32.0987 312.525 32.92C311.997 33.7413 311.264 34.3573 310.325 34.768C311.704 35.0907 312.789 35.7653 313.581 36.792C314.373 37.7893 314.769 39.0067 314.769 40.444C314.769 41.7933 314.417 42.9667 313.713 43.964C313.009 44.932 311.997 45.68 310.677 46.208C309.386 46.736 307.832 47 306.013 47H294.529ZM299.941 43.26H305.353C306.614 43.26 307.568 42.996 308.213 42.468C308.888 41.94 309.225 41.1773 309.225 40.18C309.225 39.1827 308.888 38.4347 308.213 37.936C307.568 37.408 306.614 37.144 305.353 37.144H299.941V43.26ZM299.941 33.536H304.913C305.852 33.536 306.585 33.2867 307.113 32.788C307.641 32.26 307.905 31.5853 307.905 30.764C307.905 29.9133 307.641 29.2387 307.113 28.74C306.585 28.212 305.852 27.948 304.913 27.948H299.941V33.536ZM322.707 55.8L326.183 45.328L326.623 44.404L333.047 24.208H338.635L328.295 55.8H322.707ZM323.455 46.78L315.667 24.208H321.255L327.415 42.952H328.955L328.515 46.78H323.455ZM351.154 47.528C348.954 47.528 346.974 47.044 345.214 46.076C343.483 45.108 342.104 43.744 341.078 41.984C340.08 40.1947 339.582 38.068 339.582 35.604C339.582 33.14 340.08 31.028 341.078 29.268C342.104 27.4787 343.483 26.1 345.214 25.132C346.974 24.164 348.954 23.68 351.154 23.68C353.383 23.68 355.363 24.164 357.094 25.132C358.854 26.1 360.232 27.4787 361.23 29.268C362.256 31.028 362.77 33.14 362.77 35.604C362.77 38.068 362.256 40.1947 361.23 41.984C360.232 43.744 358.854 45.108 357.094 46.076C355.363 47.044 353.383 47.528 351.154 47.528ZM351.154 42.908C352.298 42.908 353.31 42.644 354.19 42.116C355.099 41.5587 355.818 40.7373 356.346 39.652C356.874 38.5667 357.138 37.2173 357.138 35.604C357.138 33.9907 356.874 32.656 356.346 31.6C355.818 30.5147 355.099 29.6933 354.19 29.136C353.31 28.5787 352.298 28.3 351.154 28.3C350.039 28.3 349.027 28.5787 348.118 29.136C347.238 29.6933 346.534 30.5147 346.006 31.6C345.478 32.656 345.214 33.9907 345.214 35.604C345.214 37.2173 345.478 38.5667 346.006 39.652C346.534 40.7373 347.238 41.5587 348.118 42.116C349.027 42.644 350.039 42.908 351.154 42.908ZM366.33 55.8V24.208H371.434V27.464C371.962 26.5547 372.607 25.8213 373.37 25.264C374.133 24.7067 374.983 24.3107 375.922 24.076C376.861 23.812 377.814 23.68 378.782 23.68C380.689 23.68 382.405 24.164 383.93 25.132C385.455 26.0707 386.658 27.4347 387.538 29.224C388.447 31.0133 388.902 33.14 388.902 35.604C388.902 38.068 388.462 40.1947 387.582 41.984C386.702 43.744 385.499 45.108 383.974 46.076C382.449 47.044 380.718 47.528 378.782 47.528C377.902 47.528 377.022 47.4107 376.142 47.176C375.291 46.9707 374.485 46.604 373.722 46.076C372.959 45.548 372.314 44.888 371.786 44.096V55.8H366.33ZM377.374 42.908C378.518 42.908 379.53 42.644 380.41 42.116C381.29 41.5587 381.979 40.7373 382.478 39.652C383.006 38.5667 383.27 37.2173 383.27 35.604C383.27 33.9907 383.006 32.656 382.478 31.6C381.979 30.5147 381.29 29.6933 380.41 29.136C379.53 28.5787 378.518 28.3 377.374 28.3C376.23 28.3 375.203 28.5787 374.294 29.136C373.414 29.6933 372.71 30.5147 372.182 31.6C371.683 32.656 371.434 33.9907 371.434 35.604C371.434 37.2173 371.683 38.5667 372.182 39.652C372.71 40.7373 373.414 41.5587 374.294 42.116C375.203 42.644 376.23 42.908 377.374 42.908ZM392.498 47V24.208H397.822V41.764L406.182 24.208H414.014V47H408.646V29.488L400.33 47H392.498Z" fill="#243B5C"/>
<path d="M140.368 83V68.326H142.326V83H140.368ZM135.572 69.25V67.49H147.122V69.25H135.572ZM149.501 87.4L151.217 82.56L151.459 82.076L154.935 71.648H156.893L151.415 87.4H149.501ZM150.293 82.978L146.223 71.648H148.159L151.723 81.878H152.251L152.207 82.978H150.293ZM158.645 87.4V71.648H160.383V73.672H160.405C160.654 73.144 160.977 72.7113 161.373 72.374C161.784 72.0367 162.238 71.7873 162.737 71.626C163.236 71.4647 163.742 71.384 164.255 71.384C165.223 71.384 166.081 71.6187 166.829 72.088C167.592 72.5573 168.186 73.2393 168.611 74.134C169.051 75.014 169.271 76.0773 169.271 77.324C169.271 78.5707 169.051 79.6413 168.611 80.536C168.186 81.416 167.599 82.0907 166.851 82.56C166.103 83.0293 165.238 83.264 164.255 83.264C163.771 83.264 163.294 83.1833 162.825 83.022C162.356 82.8753 161.916 82.6407 161.505 82.318C161.109 81.9807 160.786 81.5553 160.537 81.042H160.515V87.4H158.645ZM163.859 81.636C164.534 81.636 165.128 81.4747 165.641 81.152C166.154 80.8293 166.565 80.3527 166.873 79.722C167.181 79.0767 167.335 78.2847 167.335 77.346C167.335 76.378 167.181 75.5787 166.873 74.948C166.565 74.3173 166.154 73.8407 165.641 73.518C165.128 73.1807 164.534 73.012 163.859 73.012C163.214 73.012 162.627 73.1807 162.099 73.518C161.571 73.8407 161.153 74.3173 160.845 74.948C160.537 75.5787 160.383 76.378 160.383 77.346C160.383 78.27 160.537 79.0547 160.845 79.7C161.153 80.3453 161.571 80.8293 162.099 81.152C162.627 81.4747 163.214 81.636 163.859 81.636ZM171.557 83V71.648H173.405V81.68H173.427L178.399 71.648H181.391V83H179.543V72.99H179.521L174.549 83H171.557ZM189.05 83.264C188.053 83.264 187.151 83.0367 186.344 82.582C185.538 82.1127 184.892 81.438 184.408 80.558C183.924 79.6633 183.682 78.5853 183.682 77.324C183.682 76.048 183.917 74.97 184.386 74.09C184.87 73.21 185.516 72.5427 186.322 72.088C187.129 71.6187 188.038 71.384 189.05 71.384C190.209 71.384 191.177 71.6407 191.954 72.154C192.746 72.6673 193.326 73.4593 193.692 74.53L192.02 75.146C191.727 74.398 191.331 73.8553 190.832 73.518C190.348 73.1807 189.74 73.012 189.006 73.012C188.42 73.012 187.87 73.1587 187.356 73.452C186.843 73.7453 186.425 74.2073 186.102 74.838C185.794 75.4687 185.64 76.2973 185.64 77.324C185.64 78.336 185.794 79.1647 186.102 79.81C186.425 80.4407 186.843 80.9027 187.356 81.196C187.884 81.4893 188.434 81.636 189.006 81.636C189.754 81.636 190.37 81.4673 190.854 81.13C191.338 80.778 191.734 80.228 192.042 79.48L193.714 80.096C193.333 81.152 192.754 81.944 191.976 82.472C191.199 83 190.224 83.264 189.05 83.264ZM198.346 83V72.264H200.216V83H198.346ZM194.54 73.276V71.648H204.044V73.276H194.54ZM205.76 83V71.648H207.608V81.68H207.63L212.602 71.648H215.594V83H213.746V72.99H213.724L208.752 83H205.76ZM221.933 78.93C220.613 78.93 219.601 78.6073 218.897 77.962C218.208 77.302 217.863 76.356 217.863 75.124V71.648H219.733V74.926C219.733 75.4687 219.821 75.916 219.997 76.268C220.188 76.62 220.474 76.884 220.855 77.06C221.251 77.2213 221.75 77.302 222.351 77.302C222.835 77.302 223.334 77.2433 223.847 77.126C224.361 77.0087 224.823 76.862 225.233 76.686V78.248C224.735 78.468 224.214 78.6367 223.671 78.754C223.129 78.8713 222.549 78.93 221.933 78.93ZM225.101 83V71.648H226.971V83H225.101ZM234.597 83.264C233.497 83.264 232.544 83.022 231.737 82.538C230.93 82.0393 230.307 81.3353 229.867 80.426C229.442 79.5167 229.229 78.468 229.229 77.28C229.229 76.1067 229.456 75.08 229.911 74.2C230.38 73.3053 231.011 72.616 231.803 72.132C232.61 71.6333 233.519 71.384 234.531 71.384C235.528 71.384 236.401 71.5967 237.149 72.022C237.912 72.4473 238.498 73.0487 238.909 73.826C239.32 74.6033 239.525 75.5273 239.525 76.598C239.525 76.818 239.525 77.0307 239.525 77.236C239.525 77.4413 239.51 77.6027 239.481 77.72H230.329V76.268H238.359L237.677 76.642C237.692 75.85 237.567 75.1753 237.303 74.618C237.054 74.0607 236.68 73.6427 236.181 73.364C235.697 73.0707 235.125 72.924 234.465 72.924C233.849 72.924 233.292 73.0707 232.793 73.364C232.294 73.6427 231.898 74.0827 231.605 74.684C231.312 75.2853 231.165 76.0627 231.165 77.016V77.346C231.165 78.7247 231.458 79.7953 232.045 80.558C232.632 81.306 233.519 81.68 234.707 81.68C235.426 81.68 236.034 81.526 236.533 81.218C237.032 80.8953 237.435 80.404 237.743 79.744L239.283 80.448C239.019 81.064 238.667 81.5847 238.227 82.01C237.787 82.4353 237.266 82.7507 236.665 82.956C236.064 83.1613 235.374 83.264 234.597 83.264ZM246.521 83.264C245.524 83.264 244.622 83.0367 243.815 82.582C243.008 82.1127 242.363 81.438 241.879 80.558C241.395 79.6633 241.153 78.5853 241.153 77.324C241.153 76.048 241.388 74.97 241.857 74.09C242.341 73.21 242.986 72.5427 243.793 72.088C244.6 71.6187 245.509 71.384 246.521 71.384C247.68 71.384 248.648 71.6407 249.425 72.154C250.217 72.6673 250.796 73.4593 251.163 74.53L249.491 75.146C249.198 74.398 248.802 73.8553 248.303 73.518C247.819 73.1807 247.21 73.012 246.477 73.012C245.89 73.012 245.34 73.1587 244.827 73.452C244.314 73.7453 243.896 74.2073 243.573 74.838C243.265 75.4687 243.111 76.2973 243.111 77.324C243.111 78.336 243.265 79.1647 243.573 79.81C243.896 80.4407 244.314 80.9027 244.827 81.196C245.355 81.4893 245.905 81.636 246.477 81.636C247.225 81.636 247.841 81.4673 248.325 81.13C248.809 80.778 249.205 80.228 249.513 79.48L251.185 80.096C250.804 81.152 250.224 81.944 249.447 82.472C248.67 83 247.694 83.264 246.521 83.264ZM260.766 83L256.74 76.818L260.678 71.648H262.812L258.148 77.654L258.324 76.136L262.856 83H260.766ZM253.198 83V71.648H255.068V83H253.198ZM253.99 77.698V76.092H257.686V77.698H253.99ZM269.018 83.264C267.991 83.264 267.06 83.0293 266.224 82.56C265.402 82.076 264.75 81.394 264.266 80.514C263.782 79.6193 263.54 78.5633 263.54 77.346C263.54 76.114 263.782 75.058 264.266 74.178C264.75 73.2833 265.402 72.594 266.224 72.11C267.06 71.626 267.991 71.384 269.018 71.384C270.044 71.384 270.968 71.626 271.79 72.11C272.626 72.594 273.278 73.2833 273.748 74.178C274.232 75.058 274.474 76.1067 274.474 77.324C274.474 78.556 274.232 79.6193 273.748 80.514C273.278 81.394 272.626 82.076 271.79 82.56C270.968 83.0293 270.044 83.264 269.018 83.264ZM269.018 81.636C269.663 81.636 270.25 81.482 270.778 81.174C271.306 80.8513 271.731 80.3747 272.054 79.744C272.376 79.1133 272.538 78.314 272.538 77.346C272.538 76.3633 272.376 75.5567 272.054 74.926C271.731 74.2807 271.306 73.804 270.778 73.496C270.25 73.1733 269.663 73.012 269.018 73.012C268.372 73.012 267.778 73.1733 267.236 73.496C266.708 73.804 266.282 74.2733 265.96 74.904C265.652 75.5347 265.498 76.3487 265.498 77.346C265.498 78.314 265.652 79.1133 265.96 79.744C266.282 80.3747 266.708 80.8513 267.236 81.174C267.778 81.482 268.372 81.636 269.018 81.636ZM281.626 83.264C280.526 83.264 279.573 83.022 278.766 82.538C277.96 82.0393 277.336 81.3353 276.896 80.426C276.471 79.5167 276.258 78.468 276.258 77.28C276.258 76.1067 276.486 75.08 276.94 74.2C277.41 73.3053 278.04 72.616 278.832 72.132C279.639 71.6333 280.548 71.384 281.56 71.384C282.558 71.384 283.43 71.5967 284.178 72.022C284.941 72.4473 285.528 73.0487 285.938 73.826C286.349 74.6033 286.554 75.5273 286.554 76.598C286.554 76.818 286.554 77.0307 286.554 77.236C286.554 77.4413 286.54 77.6027 286.51 77.72H277.358V76.268H285.388L284.706 76.642C284.721 75.85 284.596 75.1753 284.332 74.618C284.083 74.0607 283.709 73.6427 283.21 73.364C282.726 73.0707 282.154 72.924 281.494 72.924C280.878 72.924 280.321 73.0707 279.822 73.364C279.324 73.6427 278.928 74.0827 278.634 74.684C278.341 75.2853 278.194 76.0627 278.194 77.016V77.346C278.194 78.7247 278.488 79.7953 279.074 80.558C279.661 81.306 280.548 81.68 281.736 81.68C282.455 81.68 283.064 81.526 283.562 81.218C284.061 80.8953 284.464 80.404 284.772 79.744L286.312 80.448C286.048 81.064 285.696 81.5847 285.256 82.01C284.816 82.4353 284.296 82.7507 283.694 82.956C283.093 83.1613 282.404 83.264 281.626 83.264ZM301.234 83V71.648H303.104V83H301.234ZM293.996 83V71.648H295.866V83H293.996ZM295.316 73.276V71.648H301.74V73.276H295.316ZM305.942 87.4V71.648H307.68V73.672H307.702C307.951 73.144 308.274 72.7113 308.67 72.374C309.08 72.0367 309.535 71.7873 310.034 71.626C310.532 71.4647 311.038 71.384 311.552 71.384C312.52 71.384 313.378 71.6187 314.126 72.088C314.888 72.5573 315.482 73.2393 315.908 74.134C316.348 75.014 316.568 76.0773 316.568 77.324C316.568 78.5707 316.348 79.6413 315.908 80.536C315.482 81.416 314.896 82.0907 314.148 82.56C313.4 83.0293 312.534 83.264 311.552 83.264C311.068 83.264 310.591 83.1833 310.122 83.022C309.652 82.8753 309.212 82.6407 308.802 82.318C308.406 81.9807 308.083 81.5553 307.834 81.042H307.812V87.4H305.942ZM311.156 81.636C311.83 81.636 312.424 81.4747 312.938 81.152C313.451 80.8293 313.862 80.3527 314.17 79.722C314.478 79.0767 314.632 78.2847 314.632 77.346C314.632 76.378 314.478 75.5787 314.17 74.948C313.862 74.3173 313.451 73.8407 312.938 73.518C312.424 73.1807 311.83 73.012 311.156 73.012C310.51 73.012 309.924 73.1807 309.396 73.518C308.868 73.8407 308.45 74.3173 308.142 74.948C307.834 75.5787 307.68 76.378 307.68 77.346C307.68 78.27 307.834 79.0547 308.142 79.7C308.45 80.3453 308.868 80.8293 309.396 81.152C309.924 81.4747 310.51 81.636 311.156 81.636ZM323.932 83.264C322.905 83.264 321.974 83.0293 321.138 82.56C320.316 82.076 319.664 81.394 319.18 80.514C318.696 79.6193 318.454 78.5633 318.454 77.346C318.454 76.114 318.696 75.058 319.18 74.178C319.664 73.2833 320.316 72.594 321.138 72.11C321.974 71.626 322.905 71.384 323.932 71.384C324.958 71.384 325.882 71.626 326.704 72.11C327.54 72.594 328.192 73.2833 328.662 74.178C329.146 75.058 329.388 76.1067 329.388 77.324C329.388 78.556 329.146 79.6193 328.662 80.514C328.192 81.394 327.54 82.076 326.704 82.56C325.882 83.0293 324.958 83.264 323.932 83.264ZM323.932 81.636C324.577 81.636 325.164 81.482 325.692 81.174C326.22 80.8513 326.645 80.3747 326.968 79.744C327.29 79.1133 327.452 78.314 327.452 77.346C327.452 76.3633 327.29 75.5567 326.968 74.926C326.645 74.2807 326.22 73.804 325.692 73.496C325.164 73.1733 324.577 73.012 323.932 73.012C323.286 73.012 322.692 73.1733 322.15 73.496C321.622 73.804 321.196 74.2733 320.874 74.904C320.566 75.5347 320.412 76.3487 320.412 77.346C320.412 78.314 320.566 79.1133 320.874 79.744C321.196 80.3747 321.622 80.8513 322.15 81.174C322.692 81.482 323.286 81.636 323.932 81.636ZM336.54 83.264C335.543 83.264 334.641 83.0367 333.834 82.582C333.028 82.1127 332.382 81.438 331.898 80.558C331.414 79.6633 331.172 78.5853 331.172 77.324C331.172 76.048 331.407 74.97 331.876 74.09C332.36 73.21 333.006 72.5427 333.812 72.088C334.619 71.6187 335.528 71.384 336.54 71.384C337.699 71.384 338.667 71.6407 339.444 72.154C340.236 72.6673 340.816 73.4593 341.182 74.53L339.51 75.146C339.217 74.398 338.821 73.8553 338.322 73.518C337.838 73.1807 337.23 73.012 336.496 73.012C335.91 73.012 335.36 73.1587 334.846 73.452C334.333 73.7453 333.915 74.2073 333.592 74.838C333.284 75.4687 333.13 76.2973 333.13 77.324C333.13 78.336 333.284 79.1647 333.592 79.81C333.915 80.4407 334.333 80.9027 334.846 81.196C335.374 81.4893 335.924 81.636 336.496 81.636C337.244 81.636 337.86 81.4673 338.344 81.13C338.828 80.778 339.224 80.228 339.532 79.48L341.204 80.096C340.823 81.152 340.244 81.944 339.466 82.472C338.689 83 337.714 83.264 336.54 83.264ZM345.836 83V72.264H347.706V83H345.836ZM342.03 73.276V71.648H351.534V73.276H342.03ZM353.25 87.4V71.648H354.988V73.672H355.01C355.26 73.144 355.582 72.7113 355.978 72.374C356.389 72.0367 356.844 71.7873 357.342 71.626C357.841 71.4647 358.347 71.384 358.86 71.384C359.828 71.384 360.686 71.6187 361.434 72.088C362.197 72.5573 362.791 73.2393 363.216 74.134C363.656 75.014 363.876 76.0773 363.876 77.324C363.876 78.5707 363.656 79.6413 363.216 80.536C362.791 81.416 362.204 82.0907 361.456 82.56C360.708 83.0293 359.843 83.264 358.86 83.264C358.376 83.264 357.9 83.1833 357.43 83.022C356.961 82.8753 356.521 82.6407 356.11 82.318C355.714 81.9807 355.392 81.5553 355.142 81.042H355.12V87.4H353.25ZM358.464 81.636C359.139 81.636 359.733 81.4747 360.246 81.152C360.76 80.8293 361.17 80.3527 361.478 79.722C361.786 79.0767 361.94 78.2847 361.94 77.346C361.94 76.378 361.786 75.5787 361.478 74.948C361.17 74.3173 360.76 73.8407 360.246 73.518C359.733 73.1807 359.139 73.012 358.464 73.012C357.819 73.012 357.232 73.1807 356.704 73.518C356.176 73.8407 355.758 74.3173 355.45 74.948C355.142 75.5787 354.988 76.378 354.988 77.346C354.988 78.27 355.142 79.0547 355.45 79.7C355.758 80.3453 356.176 80.8293 356.704 81.152C357.232 81.4747 357.819 81.636 358.464 81.636ZM369.418 83.264C368.318 83.264 367.416 82.9707 366.712 82.384C366.023 81.7973 365.678 81.0053 365.678 80.008C365.678 79.0547 366.008 78.2847 366.668 77.698C367.328 77.1113 368.201 76.7227 369.286 76.532L373.884 75.652V77.06L370.078 77.808C369.286 77.9547 368.678 78.1967 368.252 78.534C367.827 78.8713 367.614 79.3407 367.614 79.942C367.614 80.5287 367.812 80.9833 368.208 81.306C368.604 81.614 369.147 81.768 369.836 81.768C370.452 81.768 370.988 81.6433 371.442 81.394C371.897 81.13 372.249 80.7633 372.498 80.294C372.762 79.8247 372.894 79.2893 372.894 78.688V75.454C372.894 74.6767 372.682 74.068 372.256 73.628C371.846 73.188 371.252 72.968 370.474 72.968C369.726 72.968 369.132 73.144 368.692 73.496C368.252 73.8333 367.944 74.332 367.768 74.992L365.986 74.552C366.206 73.6133 366.712 72.8507 367.504 72.264C368.296 71.6773 369.294 71.384 370.496 71.384C371.904 71.384 372.968 71.7507 373.686 72.484C374.405 73.2027 374.764 74.2073 374.764 75.498V80.69L375.644 83H373.642L373.07 81.394H373.026C372.689 81.9807 372.212 82.4427 371.596 82.78C370.98 83.1027 370.254 83.264 369.418 83.264ZM385.114 83V71.648H386.984V83H385.114ZM377.678 83V71.648H379.548V83H377.678ZM378.8 77.962V76.356H385.818V77.962H378.8ZM394.613 83.264C393.615 83.264 392.713 83.0367 391.907 82.582C391.1 82.1127 390.455 81.438 389.971 80.558C389.487 79.6633 389.245 78.5853 389.245 77.324C389.245 76.048 389.479 74.97 389.949 74.09C390.433 73.21 391.078 72.5427 391.885 72.088C392.691 71.6187 393.601 71.384 394.613 71.384C395.771 71.384 396.739 71.6407 397.517 72.154C398.309 72.6673 398.888 73.4593 399.255 74.53L397.583 75.146C397.289 74.398 396.893 73.8553 396.395 73.518C395.911 73.1807 395.302 73.012 394.569 73.012C393.982 73.012 393.432 73.1587 392.919 73.452C392.405 73.7453 391.987 74.2073 391.665 74.838C391.357 75.4687 391.203 76.2973 391.203 77.324C391.203 78.336 391.357 79.1647 391.665 79.81C391.987 80.4407 392.405 80.9027 392.919 81.196C393.447 81.4893 393.997 81.636 394.569 81.636C395.317 81.636 395.933 81.4673 396.417 81.13C396.901 80.778 397.297 80.228 397.605 79.48L399.277 80.096C398.895 81.152 398.316 81.944 397.539 82.472C396.761 83 395.786 83.264 394.613 83.264ZM403.908 83V72.264H405.778V83H403.908ZM400.102 73.276V71.648H409.606V73.276H400.102ZM411.323 83V71.648H416.427C417.439 71.648 418.26 71.9193 418.891 72.462C419.536 72.99 419.859 73.694 419.859 74.574C419.859 75.1607 419.712 75.652 419.419 76.048C419.125 76.444 418.722 76.7447 418.209 76.95V76.972C418.927 77.1187 419.492 77.4487 419.903 77.962C420.328 78.4607 420.541 79.0693 420.541 79.788C420.541 80.448 420.365 81.02 420.013 81.504C419.661 81.988 419.169 82.362 418.539 82.626C417.923 82.8753 417.189 83 416.339 83H411.323ZM413.171 81.57H416.251C417.028 81.57 417.615 81.4087 418.011 81.086C418.421 80.7633 418.627 80.294 418.627 79.678C418.627 79.0767 418.421 78.6147 418.011 78.292C417.615 77.9693 417.028 77.808 416.251 77.808H413.171V81.57ZM413.171 76.4H416.141C416.698 76.4 417.138 76.246 417.461 75.938C417.783 75.63 417.945 75.234 417.945 74.75C417.945 74.266 417.783 73.87 417.461 73.562C417.138 73.2393 416.698 73.078 416.141 73.078H413.171V76.4ZM427.723 83.264C426.696 83.264 425.765 83.0293 424.929 82.56C424.107 82.076 423.455 81.394 422.971 80.514C422.487 79.6193 422.245 78.5633 422.245 77.346C422.245 76.114 422.487 75.058 422.971 74.178C423.455 73.2833 424.107 72.594 424.929 72.11C425.765 71.626 426.696 71.384 427.723 71.384C428.749 71.384 429.673 71.626 430.495 72.11C431.331 72.594 431.983 73.2833 432.453 74.178C432.937 75.058 433.179 76.1067 433.179 77.324C433.179 78.556 432.937 79.6193 432.453 80.514C431.983 81.394 431.331 82.076 430.495 82.56C429.673 83.0293 428.749 83.264 427.723 83.264ZM427.723 81.636C428.368 81.636 428.955 81.482 429.483 81.174C430.011 80.8513 430.436 80.3747 430.759 79.744C431.081 79.1133 431.243 78.314 431.243 77.346C431.243 76.3633 431.081 75.5567 430.759 74.926C430.436 74.2807 430.011 73.804 429.483 73.496C428.955 73.1733 428.368 73.012 427.723 73.012C427.077 73.012 426.483 73.1733 425.941 73.496C425.413 73.804 424.987 74.2733 424.665 74.904C424.357 75.5347 424.203 76.3487 424.203 77.346C424.203 78.314 424.357 79.1133 424.665 79.744C424.987 80.3747 425.413 80.8513 425.941 81.174C426.483 81.482 427.077 81.636 427.723 81.636Z" fill="#243B5C"/>
</svg>
